<svg version="1.2" xmlns="http://www.w3.org/2000/svg" viewBox="0 0 45 64" width="45" height="64"><defs><linearGradient id="P" gradientUnits="userSpaceOnUse"/><linearGradient id="g1" x1="19.8" y1="42.5" x2="22.9" y2="32.2" href="#P"><stop stop-color="#ff9700"/><stop offset=".5" stop-color="#f48e00"/><stop offset="1" stop-color="#d06f00"/></linearGradient></defs><style>.a{fill:url(#g1)}.b{fill:#ff9800}</style><path fill-rule="evenodd" class="a" d="m36 37.6c0 0.6-0.4 1.2-0.9 1.3l-34.2 10.9c-0.5 0.1-0.9-0.2-0.9-0.7v-11.1c0-0.6 0.4-1.1 0.9-1.3l34.2-10.8c0.5-0.2 0.9 0.1 0.9 0.7z"/><path fill-rule="evenodd" class="b" d="m0 15.1c0-0.5 0.4-0.8 0.9-0.7l34.2 10.9c0.5 0.1 0.9 0.7 0.9 1.2v11.1c0 0.6-0.4 0.9-0.9 0.7l-34.2-10.8c-0.5-0.2-0.9-0.7-0.9-1.3z"/><path fill-rule="evenodd" class="b" d="m36 14.9c0 0.5-0.4 1.1-0.9 1.3l-34.2 10.8c-0.5 0.2-0.9-0.2-0.9-0.7v-11.1c0-0.5 0.4-1.1 0.9-1.3l34.2-10.8c0.5-0.2 0.9 0.1 0.9 0.7z"/></svg>